<svg preserveAspectRatio="none" width="100%" height="100%" overflow="visible" style="display: block;" viewBox="0 0 39.9989 39.9989" fill="none" xmlns="http://www.w3.org/2000/svg">
<g id="safety_box">
<path id="Vector" d="M9.26182 1.0001H30.7374C35.2924 1.0001 38.9991 4.70687 38.9991 9.26182V30.7374C38.9991 35.2911 35.2923 38.9991 30.7374 38.9991H9.26182C4.70812 38.9991 1.0001 35.2923 1.0001 30.7374V9.26182L1.01084 8.83701C1.22545 4.61916 4.61916 1.22545 8.83701 1.01084L9.26182 1.0001ZM9.26182 1.41611C4.93368 1.41611 1.41611 4.93527 1.41611 9.26182V30.7374C1.41611 35.0654 4.93381 38.5831 9.26182 38.5831H30.7374C35.0654 38.5831 38.5831 35.0654 38.5831 30.7374V9.26182C38.5831 4.93527 35.0655 1.41611 30.7374 1.41611H9.26182Z" fill="var(--fill-0, black)" stroke="var(--stroke-0, #D0F7DC)" stroke-width="2"/>
<path id="Vector_2" d="M19.9989 12.9921C16.1339 12.9921 12.9921 16.1355 12.9921 19.9989C12.9922 23.8638 16.134 27.0058 19.9989 27.0058C23.8638 27.0057 27.0057 23.8638 27.0058 19.9989C27.0058 16.1355 23.864 12.9922 19.9989 12.9921ZM19.7909 27.4608L18.9345 27.3368C17.6855 27.156 16.5374 26.6647 15.5683 25.9394L14.8749 25.4198L12.8798 27.415C12.8383 27.4564 12.7872 27.4764 12.7323 27.4765C12.6773 27.4765 12.6255 27.4565 12.5839 27.415L12.5829 27.414L12.5566 27.3817C12.5038 27.3021 12.5117 27.1922 12.5839 27.12L13.9667 25.7382L14.579 25.1249L14.0605 24.4316C13.3352 23.4626 12.8438 22.3155 12.663 21.0653L12.539 20.2079H9.72257C9.60776 20.2079 9.51456 20.1147 9.51456 19.9999C9.51468 19.8852 9.60783 19.7919 9.72257 19.7919H12.5409L12.665 18.9355C12.8458 17.6852 13.3371 16.5373 14.0624 15.5683L14.5819 14.8749L13.9687 14.2616L12.5858 12.8808H12.5868C12.5057 12.7995 12.5055 12.6681 12.5868 12.5868C12.6667 12.507 12.799 12.505 12.8817 12.5868L14.2636 13.9687L14.8769 14.58L15.5702 14.0614C16.5393 13.3361 17.6866 12.8448 18.9355 12.664L19.7919 12.54V9.72257C19.7919 9.60783 19.8852 9.51468 19.9999 9.51456C20.1147 9.51456 20.2079 9.60776 20.2079 9.72257V12.539L21.0653 12.663C22.3141 12.8438 23.4616 13.3352 24.4306 14.0605L25.1239 14.579L25.7362 13.9667L27.1191 12.5858V12.5849C27.2004 12.5037 27.3328 12.5037 27.414 12.5849C27.4959 12.6668 27.4957 12.7978 27.414 12.8798L26.0312 14.2607L25.4179 14.873L25.9374 15.5673C26.6626 16.5362 27.154 17.6834 27.3349 18.9335L27.4589 19.7909H30.2753C30.3885 19.7911 30.4832 19.8839 30.4833 19.9999C30.4833 20.1146 30.39 20.2078 30.2753 20.2079H27.4589L27.3349 21.0653C27.154 22.3155 26.6626 23.4626 25.9374 24.4316L25.4189 25.1249L26.0312 25.7382L27.414 27.12L27.415 27.121C27.4949 27.2008 27.4963 27.3324 27.414 27.415C27.3724 27.4565 27.3206 27.4765 27.2655 27.4765C27.2106 27.4764 27.1596 27.4564 27.1181 27.415L25.123 25.4198L24.4286 25.9394C23.4596 26.6645 22.3122 27.1561 21.0634 27.3368L20.2069 27.4608V30.2763C20.2069 30.391 20.1137 30.4842 19.9989 30.4843C19.8841 30.4843 19.7909 30.3911 19.7909 30.2763V27.4608Z" fill="var(--fill-0, black)" stroke="var(--stroke-0, #D0F7DC)" stroke-width="2"/>
<g id="Vector_3">
</g>
</g>
</svg>
