<svg preserveAspectRatio="none" width="100%" height="100%" overflow="visible" style="display: block;" viewBox="0 0 17.5 20.4485" fill="none" xmlns="http://www.w3.org/2000/svg">
<g id="Group">
<g id="Group_2">
<path id="Vector" d="M16.75 5.29064V19.6985H0.75V0.750102H12.2095L16.75 5.29064Z" stroke="var(--stroke-0, #D0F7DC)" stroke-width="1.5" stroke-miterlimit="10" stroke-linecap="round" stroke-linejoin="round"/>
<path id="Vector_2" d="M16.7303 5.27091H12.2095V0.750022L16.7303 5.27091Z" stroke="var(--stroke-0, #D0F7DC)" stroke-width="1.5" stroke-miterlimit="10" stroke-linecap="round" stroke-linejoin="round"/>
<path id="Vector_3" d="M12.2095 0.750022L16.7303 5.27091L16.75 5.29056" stroke="var(--stroke-0, #D0F7DC)" stroke-width="1.5" stroke-miterlimit="10" stroke-linecap="round" stroke-linejoin="round"/>
</g>
<path id="Vector_4" d="M3.12838 3.10882H9.85074" stroke="var(--stroke-0, #D0F7DC)" stroke-width="1.5" stroke-miterlimit="10" stroke-linecap="round" stroke-linejoin="round"/>
<path id="Vector_5" d="M3.12838 5.46755H9.85074" stroke="var(--stroke-0, #D0F7DC)" stroke-width="1.5" stroke-miterlimit="10" stroke-linecap="round" stroke-linejoin="round"/>
<path id="Vector_6" d="M3.12838 7.82627H14.3716" stroke="var(--stroke-0, #D0F7DC)" stroke-width="1.5" stroke-miterlimit="10" stroke-linecap="round" stroke-linejoin="round"/>
<path id="Vector_7" d="M8.75 17.3398C10.6823 17.3398 12.2488 15.7733 12.2488 13.841C12.2488 11.9087 10.6823 10.3422 8.75 10.3422C6.81768 10.3422 5.25123 11.9087 5.25123 13.841C5.25123 15.7733 6.81768 17.3398 8.75 17.3398Z" stroke="var(--stroke-0, #D0F7DC)" stroke-width="1.5" stroke-miterlimit="10" stroke-linecap="round" stroke-linejoin="round"/>
<path id="Vector_8" d="M7.62961 13.7231L8.45516 14.5486L9.87039 13.1334" stroke="var(--stroke-0, #D0F7DC)" stroke-width="1.5" stroke-miterlimit="10" stroke-linecap="round" stroke-linejoin="round"/>
</g>
</svg>
