<svg width="262" height="149" viewBox="0 0 262 149" fill="none" xmlns="http://www.w3.org/2000/svg">
<circle cx="50" cy="44" r="2" fill="#D0F7DC" fill-opacity="0.25"/>
<circle cx="229" cy="66" r="2" fill="#D0F7DC" fill-opacity="0.25"/>
<circle cx="215" cy="102" r="2" fill="#D0F7DC" fill-opacity="0.25"/>
<circle cx="229" cy="117" r="2" fill="#D0F7DC" fill-opacity="0.25"/>
<circle cx="81" cy="138" r="1" fill="#D0F7DC" fill-opacity="0.25"/>
<circle cx="75" cy="63" r="1" fill="#D0F7DC" fill-opacity="0.25"/>
<circle cx="101" cy="21" r="1" fill="#D0F7DC" fill-opacity="0.25"/>
<circle cx="165" cy="13" r="1" fill="#D0F7DC" fill-opacity="0.25"/>
<circle cx="208" cy="81" r="1" fill="#D0F7DC" fill-opacity="0.25"/>
<circle cx="181" cy="47" r="1" fill="#D0F7DC" fill-opacity="0.75"/>
<circle cx="114" cy="43" r="1" fill="#D0F7DC" fill-opacity="0.75"/>
<circle cx="85" cy="102" r="1" fill="#D0F7DC" fill-opacity="0.25"/>
<circle cx="94" cy="64" r="1" fill="#D0F7DC" fill-opacity="0.75"/>
<circle cx="203" cy="101" r="1" fill="#D0F7DC" fill-opacity="0.25"/>
<circle cx="260" cy="22" r="2" fill="#D0F7DC" fill-opacity="0.25"/>
<circle cx="117" cy="26" r="2" fill="#D0F7DC" fill-opacity="0.75"/>
<circle cx="215" cy="57" r="2" fill="#D0F7DC" fill-opacity="0.25"/>
<circle cx="58" cy="59" r="2" fill="#D0F7DC" fill-opacity="0.25"/>
<circle cx="2" cy="63" r="2" fill="#D0F7DC" fill-opacity="0.25"/>
<circle cx="82" cy="39" r="2" fill="#D0F7DC" fill-opacity="0.25"/>
<circle cx="113" cy="2" r="2" fill="#D0F7DC" fill-opacity="0.25"/>
<circle cx="57.5" cy="81.5" r="5.5" fill="#D0F7DC" fill-opacity="0.25"/>
<circle cx="64" cy="115" r="4" fill="#D0F7DC" fill-opacity="0.65"/>
<circle cx="209" cy="145" r="4" fill="#D0F7DC" fill-opacity="0.45"/>
<circle cx="244.5" cy="96.5" r="5.5" fill="#D0F7DC" fill-opacity="0.25"/>
<circle cx="179.5" cy="34.5" r="2.5" fill="#D0F7DC" fill-opacity="0.88"/>
</svg>
